<svg xmlns="http://www.w3.org/2000/svg" width="512" height="512" stroke="null" fill="#333" xmlns:v="https://vecta.io/nano"><path d="M219.136 295.134c9.338 6.743 19.98 10.944 31.5 12.16v9.728a6.73 6.73 0 0 0 6.732 6.743c3.692 0 6.624-2.985 6.624-6.743v-9.397c19.545-1.88 32.792-13.266 32.792-30.5 0-16.803-10-26.3-33.335-32.28v-30.07c5.212 1.216 10.424 3.648 15.853 6.854 1.52.884 3.04 1.437 4.56 1.437 4.778 0 8.578-3.76 8.578-8.623 0-3.76-2.172-6.08-4.56-7.517-7.058-4.532-14.767-7.517-23.888-8.623v-3.427c0-3.76-2.932-6.743-6.624-6.743s-6.732 2.985-6.732 6.743v3.316c-19.22 1.548-32.25 13.155-32.25 29.848 0 17.688 10.424 26.3 32.9 32.28v30.843c-8.47-1.548-15.528-5.196-22.803-10.502-1.412-1.105-3.258-1.77-5.103-1.77-4.778 0-8.47 3.76-8.47 8.623.1 3.427 1.63 5.86 4.235 7.628zm44.302-31.727c11.836 3.76 15.202 7.96 15.202 14.924 0 7.517-5.43 12.492-15.202 13.597v-28.52zm-26.93-36.37c0-6.854 4.886-12.16 14.767-13.155v27.747c-11.836-3.98-14.767-7.96-14.767-14.592zM255.946 1.963c-21.5 0-42.9 2.764-63.413 8.3-2.172.553-4.018 2.1-4.886 4.2-.977 2.1-.977 4.422-.1 6.522l33.77 76.167c1.412 3.206 4.778 5.085 8.252 4.422 8.578-1.548 17.482-2.2 26.386-2.2 84.913 0 153.972 70.308 153.972 156.756s-69.06 156.645-153.972 156.645c-83.6 0-151.15-66.55-153.864-151.45h0v-.332c-.1-1.548-.1-3.206-.1-4.975a160.67 160.67 0 0 1 5.103-40.13c.87-3.427-.652-6.964-3.583-8.733l-71.557-40.902a7.64 7.64 0 0 0-6.406-.553c-2.172.774-3.692 2.543-4.452 4.643-9.664 27.526-14.55 56.38-14.55 85.674l.1 8.402C8.7 330.5 35.52 392.305 82.2 438.292c46.8 46.2 108.475 71.745 173.734 71.745 66.67 0 129.324-26.42 176.45-74.398S505.472 323.876 505.472 256 479.52 124.338 432.395 76.36 322.616 1.963 255.946 1.963zm165.7 422.732c-44.302 45.103-103.155 69.866-165.7 69.866-61.24 0-119.225-23.878-163.202-67.323-43.868-43.224-69.06-101.26-71.014-163.4-.1-2.432-.1-4.975-.1-7.85 0-24.43 3.692-48.53 10.858-71.745l58.527 33.496A174.94 174.94 0 0 0 86.772 256c0 1.88 0 3.648.1 5.417h0v.22c2.932 93.412 77.203 166.595 169.065 166.595 93.274 0 169.174-77.272 169.174-172.233S349.22 83.767 255.946 83.767c-7.7 0-15.528.553-23.128 1.548l-27.7-62.35c16.505-3.76 33.552-5.638 50.817-5.638 62.544 0 121.397 24.763 165.7 69.866s68.625 105.02 68.625 168.695c0 63.786-24.323 123.702-68.625 168.806zM163.432 28.273c-1.737-3.87-6.2-5.638-10.098-3.87-48.32 22.22-89.147 60.36-115.1 107.452-2.063 3.76-.76 8.402 2.932 10.502l70.037 40.018c1.194.663 2.497.995 3.692.995 2.606 0 5.212-1.437 6.624-3.98 16.07-29.074 41.262-52.73 71.123-66.44 1.846-.884 3.258-2.432 4.018-4.3s.652-4.1-.217-5.97l-33-74.398zM112.18 165.13l-56.898-32.5c23.128-38.913 57.332-70.86 97.4-90.87l26.82 60.47c-27.472 14.26-51.034 36.26-67.322 62.9zM138.675 256l.1 3.87c.977 31.064 13.573 60.138 35.507 81.805 22.043 21.667 50.926 33.717 81.655 33.717 64.607 0 117.27-53.505 117.27-119.4s-52.555-119.4-117.27-119.4a115.18 115.18 0 0 0-48.211 10.502c-41.913 19.346-69.06 62.017-69.06 108.9zm75.357-94.74a99.85 99.85 0 0 1 41.913-9.175c56.247 0 102.07 46.65 102.07 103.914s-45.822 103.914-102.07 103.914c-55.378 0-100.223-44.108-101.96-100.487V256c-.1-40.792 23.563-77.936 60.047-94.74z"/></svg>